<?xml version="1.0" standalone="no"?>
<!DOCTYPE svg PUBLIC "-//W3C//DTD SVG 20010904//EN"
 "http://www.w3.org/TR/2001/REC-SVG-20010904/DTD/svg10.dtd">
<svg version="1.0" xmlns="http://www.w3.org/2000/svg"
 width="300.000000pt" height="300.000000pt" viewBox="0 0 300.000000 300.000000"
 preserveAspectRatio="xMidYMid meet">

<g transform="translate(0.000000,300.000000) scale(0.100000,-0.100000)"
fill="#000000" stroke="none">
<path d="M1302 2419 c-91 -14 -219 -60 -309 -110 -112 -63 -272 -224 -336
-339 -147 -263 -161 -585 -38 -851 99 -214 296 -399 507 -476 260 -94 554 -68
780 68 218 132 374 350 430 601 21 89 23 289 5 373 -43 198 -130 355 -272 490
-124 118 -241 184 -395 225 -92 24 -277 34 -372 19z m-274 -728 c21 -13 10
-46 -16 -49 -27 -4 -40 22 -22 43 14 17 20 18 38 6z m-68 -36 c6 -8 9 -18 6
-23 -2 -4 16 -8 42 -8 38 1 48 5 52 21 8 29 54 27 58 -2 2 -14 -3 -23 -18 -28
l-20 -6 20 -26 c29 -37 26 -86 -7 -123 -56 -63 -157 -43 -183 35 -10 31 -9 41
8 75 15 31 16 40 6 44 -15 6 -19 38 -7 49 11 11 30 8 43 -8z m339 -50 c22 -22
-1 -40 -52 -40 -39 0 -42 -2 -45 -28 -4 -33 13 -57 39 -57 23 0 24 9 2 25 -27
20 -9 45 32 45 l35 0 0 -48 c0 -26 -5 -53 -12 -60 -17 -17 -84 -15 -113 4 -32
21 -47 75 -33 115 21 61 106 86 147 44z m96 -26 c9 -27 21 -24 42 11 17 30 46
39 58 19 4 -5 -6 -29 -21 -52 -15 -23 -30 -60 -34 -82 -4 -32 -10 -41 -27 -43
-20 -3 -23 1 -23 30 0 20 -12 51 -30 78 -33 50 -36 60 -18 78 14 14 43 -8 53
-39z m590 37 c19 -8 35 -19 35 -23 0 -20 -24 -31 -60 -26 -32 5 -40 2 -50 -17
-9 -17 -9 -29 -1 -48 10 -22 16 -24 51 -19 49 6 76 -17 45 -39 -34 -25 -93
-18 -126 15 -50 51 -34 127 35 157 39 16 31 17 71 0z m-1150 -12 c28 -18 49
-72 39 -100 -4 -10 -18 -31 -32 -46 -22 -24 -34 -28 -79 -28 l-53 0 0 95 0 95
50 0 c29 0 61 -7 75 -16z m805 -4 c22 -22 27 -69 9 -87 -8 -8 -7 -17 2 -34 11
-22 14 -19 53 59 53 108 65 108 117 -3 22 -47 37 -90 34 -95 -10 -17 -40 -11
-53 10 -16 26 -68 27 -82 1 -7 -15 -20 -19 -56 -19 -38 1 -48 5 -57 25 -13 30
-45 30 -49 1 -2 -15 -11 -24 -25 -26 -22 -3 -23 -1 -23 92 l0 96 55 0 c42 0
60 -5 75 -20z m538 -2 c-3 -20 -10 -23 -50 -26 -54 -4 -66 -22 -14 -22 36 0
53 -19 33 -39 -6 -6 -24 -11 -39 -11 -15 0 -28 -4 -28 -10 0 -5 23 -10 50 -10
47 0 50 -2 50 -25 0 -26 -1 -26 -72 -23 l-73 3 -3 79 c-2 44 -1 85 2 93 4 9
26 13 76 13 68 0 71 -1 68 -22z"/>
<path d="M760 1525 c0 -37 3 -45 18 -45 24 0 42 19 42 45 0 26 -18 45 -42 45
-15 0 -18 -8 -18 -45z"/>
<path d="M1560 1550 c0 -16 5 -21 23 -18 12 2 22 10 22 18 0 8 -10 16 -22 18
-18 3 -23 -2 -23 -18z"/>
<path d="M1750 1520 c0 -5 5 -10 10 -10 6 0 10 5 10 10 0 6 -4 10 -10 10 -5 0
-10 -4 -10 -10z"/>
</g>
</svg>
